<svg width="482.17mm" height="106.46mm" version="1.1" viewBox="0 0 482.17 106.46" xmlns="http://www.w3.org/2000/svg">
 <g transform="translate(-574.48 -380.4)">
  <g transform="translate(992.52 -34.575)" stroke-width=".71333">
   <path d="m-267.67 499.63c-14.052-3.1243-22.449-15.694-21.133-31.632 1.0986-13.304 7.8516-22.425 19.216-25.953 9.5252-2.9572 22.268-0.8965 28.746 4.6488 3.3573 2.8737 6.4524 8.2757 7.1147 12.417l0.47829 2.9911h-14.814l-1.6362-3.5666c-1.8625-4.0599-4.1563-5.5839-9.2721-6.1606-5.1432-0.57977-9.1525 1.8558-11.91 7.2351-1.9411 3.7867-2.14 4.8137-2.14 11.052 0 6.2432 0.19737 7.2606 2.14 11.031 2.5494 4.9478 5.4344 6.8026 10.581 6.8026 6.129 0 10.259-3.0318 11.695-8.586l0.63885-2.4706 7.6802-0.20304c7.0882-0.18738 7.651-0.10491 7.3015 1.07-0.20829 0.70017-0.60037 2.236-0.8713 3.413-3.1464 13.669-17.855 21.46-33.815 17.911zm64.2 0.25572c-4.9823-1.046-11.704-4.6861-14.626-7.921-1.4592-1.6152-3.6313-5.0269-4.8267-7.5815-1.8153-3.8792-2.228-5.7748-2.5037-11.502-0.53803-11.173 2.1594-18.886 8.7208-24.934 6.1069-5.6292 12.573-7.624 22.952-7.0811 8.5478 0.44711 14.113 2.9604 19.425 8.7717 5.5054 6.0238 6.8513 10.16 6.8686 21.111l0.0143 9.0041-2.8533 5.5882c-3.3447 6.5506-7.8704 10.686-14.347 13.109-4.7339 1.7712-13.895 2.4696-18.823 1.435zm13.539-12.64c2.9055-1.4598 5.4063-4.9197 6.505-9 1.0245-3.8046 0.96359-12.632-0.11026-15.985-3.3317-10.403-15.693-13.543-22.412-5.694-2.8671 3.3495-3.9423 7.2727-3.9423 14.385 0 8.5404 2.9243 14.78 7.847 16.743 2.9228 1.1655 9.3756 0.92679 12.112-0.44804zm147.54 12.426c-6.7159-1.9027-10.63-5.9435-12.015-12.405-1.7428-8.1285 1.8711-15.482 9.1467-18.612 1.8721-0.80537 7.0857-1.9907 11.586-2.6341 14.763-2.1108 16.385-2.8978 16.385-7.9527 0-3.7685-1.538-5.5436-5.7966-6.6903-4.5982-1.2382-9-0.30174-11.815 2.5136-1.2987 1.2987-2.3613 3.0354-2.3613 3.8593 0 1.431-0.351 1.498-7.8466 1.498-7.6638 0-7.8465-0.0374-7.8397-1.605 0.0123-2.8327 3.2916-8.7701 6.1427-11.122 5.3398-4.4043 9.3367-5.4366 20.957-5.4129 9.0157 0.0184 10.864 0.22706 14.402 1.6255 4.1359 1.6349 7.9219 5.112 9.1858 8.4364 0.36604 0.96279 0.66554 10.032 0.66554 20.153 0 16.711 0.43128 23.053 1.8103 26.623 0.44141 1.1425-0.18315 1.2483-7.3643 1.2483-8.2956 0-8.7126-0.1735-8.7126-3.625 0-1.7486-0.20277-1.7255-3.4036 0.38727-5.9446 3.9239-16.438 5.6092-23.126 3.7144zm20.621-11.601c2.8425-2.0779 4.3171-5.5834 4.8961-11.64 0.47931-5.0132 0.43537-5.2576-0.84638-4.7069-0.74357 0.31948-3.5989 1.0266-6.3453 1.5714-11.853 2.3513-14.254 3.5895-15.035 7.7527-0.63378 3.3783 0.8526 6.6715 3.5655 7.8997 3.2555 1.4738 11.246 0.96465 13.765-0.87721zm-52.705 11.167c-5.2616-0.72185-9.1604-2.796-10.937-5.8183-1.3157-2.2383-1.4438-3.9391-1.6469-21.865l-0.22027-19.438h-9.1894v-9.9866h9.2733v-17.12h15.693v17.12h11.413v9.9866h-11.413v16.05c0 19.067-0.0619 18.903 7.1333 18.903h4.28v12.127h-2.0404c-1.1222 0-3.4495 0.13427-5.1717 0.29838-1.7222 0.16411-4.9506 0.0488-7.1742-0.25628zm-81.914-28.575v-28.533h14.267v7.9776l3.0317-3.1132c4.7844-4.9131 7.5159-5.9344 15.872-5.9344 6.0831 0 7.6441 0.25143 10.603 1.7078 3.7231 1.8328 7.0102 6.0876 8.3057 10.751 0.38692 1.3927 0.70222 12.18 0.70442 24.1l4e-3 21.578h-14.98v-17.085c0-19.045-0.57321-23.312-3.5844-26.679-1.8859-2.1089-2.3061-2.2449-6.8804-2.2269-10.684 0.0421-12.347 4.1914-12.356 30.832l-5e-3 15.158h-14.98zm169.52 16.228c4.6119-6.7677 9.2748-13.544 10.362-15.059l1.9766-2.754-3.0856-4.3793c-4.8907-6.9414-14.395-20.699-14.976-21.678-0.41172-0.69388 1.4372-0.89166 8.3354-0.89166h8.8645l4.4865 6.8039c2.4676 3.7422 4.7468 6.9648 5.0649 7.1614 0.31814 0.19663 2.7241-2.8651 5.3466-6.8039l4.7681-7.1614h8.4512c4.6482 0 8.4512 0.15484 8.4512 0.34407 0 0.18924-3.8678 5.8216-8.595 12.516s-8.7675 12.622-8.9782 13.171c-0.21627 0.56356 3.5752 6.6858 8.7043 14.055 4.9981 7.1812 9.7021 13.94 10.453 15.018l1.366 1.9617h-17.731l-5.8973-8.9027c-3.2435-4.8965-6.1237-8.7628-6.4004-8.5918s-3.0447 4.1711-6.151 8.889l-5.6478 8.5781-8.7772 0.0137-8.7772 0.0136z" fill="#c6f44a"/>
   <path d="m-389.98 520.82c-5.9142-1.0505-11.413-3.4762-11.413-5.0344 0-0.33241 2.3454-1.6881 5.2121-3.0125 11.23-5.1888 20.838-13.132 26.641-22.024 4.3457-6.6597 5.782-10.303 8.115-20.586 3.6069-15.897 6.6981-21.81 15.874-30.365 8.3227-7.7594 22.392-14.422 26.501-12.55 3.9718 1.8097 7.5362 12.536 7.5362 22.679 0 32.382-31.784 66.632-65.791 70.897-6.5373 0.81971-8.045 0.81934-12.675-3e-3zm-19.26-11.912c-1.9263-0.67635-3.6934-2.6314-5.3295-5.8962-6.74-13.45-3.4713-34.209 8.1689-51.878 8.6329-13.104 19.942-23.049 33.897-29.808 10.637-5.1521 15.753-6.3817 26.393-6.3447 7.4208 0.0258 9.177 0.27019 13.197 1.8365 2.5502 0.99371 4.7322 2.2935 4.8489 2.8884 0.1459 0.74356-2.0835 2.2124-7.1333 4.6999-13.366 6.5841-21.958 14.722-27.633 26.176-2.7889 5.6287-3.5598 8.103-6.425 20.624-2.893 12.642-10.321 23.297-21.196 30.405-7.0963 4.6382-16.244 8.1911-18.789 7.2975z" fill="#f8fbfc"/>
  </g>
 </g>
</svg>
