<svg width="106.53mm" height="106.46mm" version="1.1" viewBox="0 0 106.53 106.46" xmlns="http://www.w3.org/2000/svg">
 <g transform="translate(-835.42 -249.97)">
  <g transform="translate(992.52 -34.575)">
   <path d="m-129.04 390.38c-5.9142-1.0505-11.413-3.4762-11.413-5.0344 0-0.33241 2.3454-1.6881 5.2121-3.0125 11.23-5.1888 20.838-13.132 26.641-22.024 4.3457-6.6597 5.782-10.303 8.115-20.586 3.6069-15.897 6.6981-21.81 15.874-30.365 8.3227-7.7594 22.392-14.422 26.501-12.55 3.9718 1.8097 7.5362 12.536 7.5362 22.679 0 32.382-31.784 66.632-65.791 70.897-6.5373 0.81971-8.045 0.81934-12.675-3e-3zm-19.26-11.912c-1.9263-0.67635-3.6934-2.6314-5.3295-5.8962-6.74-13.45-3.4713-34.209 8.1689-51.878 8.6329-13.104 19.942-23.049 33.897-29.808 10.637-5.1521 15.753-6.3817 26.393-6.3447 7.4208 0.0258 9.177 0.27019 13.197 1.8365 2.5502 0.99371 4.7322 2.2935 4.8489 2.8884 0.1459 0.74356-2.0835 2.2124-7.1333 4.6999-13.366 6.5841-21.958 14.722-27.633 26.176-2.7889 5.6287-3.5598 8.103-6.425 20.624-2.893 12.642-10.321 23.297-21.196 30.405-7.0963 4.6382-16.244 8.1911-18.789 7.2975z" fill="#f8fbfc" stroke-width=".71333"/>
  </g>
 </g>
</svg>
